# xmcd
# 
# Track frame offsets:
#     150
#     29320
#     42170
#     58863
#     68662
#     96552
#     158440
#     170963
#     187965
# 
# Disc length: 2714
# 
# Revision: 1
# Processed by: cddbd v1.5.2PL0 Copyright (c) Steve Scherf et al.
# Submitted via: BonkEnc v1.0.8
# 
DISCID=760a9809
DTITLE=Jack DeJohnette, Dave Holland - Time and Space
DYEAR=1973
DGENRE=Contemporary Jazz
TTITLE0=Turned Around
TTITLE1=Farah's Song
TTITLE2=The Rain Forest
TTITLE3=Hegwineeway
TTITLE4=Lydia
TTITLE5=Papa Daddy Revisited
TTITLE6=Stride Vibes
TTITLE7=Outside - Inside Blues
TTITLE8=Time and Space
EXTD=
EXTT0=
EXTT1=
EXTT2=
EXTT3=
EXTT4=
EXTT5=
EXTT6=
EXTT7=
EXTT8=
PLAYORDER=
